<?xml version="1.0" standalone="no"?>
<!DOCTYPE svg PUBLIC "-//W3C//DTD SVG 20010904//EN"
 "http://www.w3.org/TR/2001/REC-SVG-20010904/DTD/svg10.dtd">
<svg version="1.0" xmlns="http://www.w3.org/2000/svg"
 width="1581.000000pt" height="536.000000pt" viewBox="0 0 1581.000000 536.000000"
 preserveAspectRatio="xMidYMid meet">

<g transform="translate(0.000000,536.000000) scale(0.100000,-0.100000)"
fill="#000000" stroke="none">
<path d="M14845 5332 c-45 -15 -107 -43 -140 -62 -79 -47 -185 -148 -232 -220
l-38 -60 -565 0 c-599 0 -665 -4 -829 -50 -214 -60 -404 -194 -520 -366 -117
-175 -170 -405 -158 -691 21 -485 179 -895 452 -1169 89 -90 159 -142 326
-242 153 -92 236 -206 292 -402 14 -47 30 -129 37 -182 16 -124 8 -345 -14
-415 -35 -111 -116 -192 -229 -230 -47 -16 -112 -18 -624 -21 l-573 -3 0 -315
0 -315 643 4 c542 3 655 7 724 20 337 68 543 213 668 471 175 360 161 1009
-30 1422 -93 202 -217 339 -447 495 -84 57 -179 126 -211 152 -218 181 -337
479 -326 813 4 104 6 115 42 187 42 84 91 133 172 171 92 43 131 46 643 46
l487 0 29 -55 c89 -172 235 -296 421 -361 73 -26 92 -28 225 -28 133 0 152 2
225 28 307 107 498 370 498 686 0 129 -20 217 -73 325 -91 184 -243 312 -444
374 -56 17 -93 21 -210 21 -127 0 -149 -3 -221 -28z m320 -471 c83 -38 146
-133 145 -220 -3 -176 -199 -290 -351 -204 -137 78 -168 243 -66 359 23 26 59
55 82 65 52 24 138 24 190 0z"/>
<path d="M2635 4983 c-427 -55 -721 -277 -834 -628 -41 -128 -55 -228 -54
-405 3 -473 143 -887 402 -1188 77 -90 169 -163 326 -260 161 -100 229 -167
285 -284 105 -219 138 -589 69 -772 -41 -111 -143 -191 -273 -215 -39 -7 -254
-11 -607 -11 l-547 0 -21 33 c-30 48 -138 150 -201 190 -129 81 -255 112 -422
105 -136 -6 -235 -36 -344 -104 -319 -197 -434 -603 -268 -940 90 -183 269
-326 474 -381 88 -23 262 -23 350 0 209 56 382 199 476 393 l35 73 612 4 c570
4 619 6 707 25 307 66 497 192 624 416 89 155 134 348 143 612 16 440 -78 807
-273 1067 -86 114 -157 177 -351 308 -244 165 -353 286 -430 476 -54 133 -76
253 -77 423 0 128 2 152 23 202 28 72 108 161 172 194 104 52 127 54 636 54
l473 0 0 310 0 310 -537 -1 c-296 -1 -551 -4 -568 -6z m-1738 -3942 c119 -61
166 -196 109 -317 -82 -175 -333 -177 -421 -4 -69 135 2 291 155 341 37 12
113 3 157 -20z"/>
<path d="M4875 4974 c-333 -59 -555 -243 -654 -539 -68 -202 -64 -126 -68
-1555 -5 -1378 -3 -1459 42 -1639 34 -136 110 -282 193 -372 110 -119 229
-188 408 -236 l99 -27 473 -4 472 -3 -2 313 -3 313 -385 5 -385 5 -60 30 c-69
35 -115 89 -142 168 -17 49 -18 137 -21 1321 -1 819 1 1288 8 1323 23 127 89
221 185 265 49 22 59 23 408 26 l357 3 0 309 0 310 -422 -1 c-319 -1 -443 -4
-503 -15z"/>
<path d="M10010 4681 l0 -311 338 0 c368 0 398 -4 473 -56 50 -34 94 -100 122
-184 l22 -65 3 -1179 c2 -701 -1 -1228 -7 -1300 -12 -155 -35 -218 -100 -279
-80 -75 -96 -77 -523 -77 l-368 0 0 -315 0 -315 428 0 c453 0 536 6 672 51
322 104 509 345 565 725 14 96 15 269 13 1474 l-4 1365 -26 105 c-33 133 -68
214 -135 317 -106 162 -251 261 -473 321 -94 26 -98 26 -547 30 l-453 3 0
-310z"/>
<path d="M6027 4344 c-4 -4 -7 -60 -7 -124 l0 -117 -62 -17 c-99 -27 -169 -67
-234 -131 -169 -168 -177 -438 -17 -587 92 -85 212 -131 473 -182 236 -47 300
-102 184 -161 -56 -29 -196 -27 -278 3 -70 26 -149 72 -213 125 -25 20 -48 37
-52 37 -7 0 -244 -285 -249 -300 -2 -4 34 -36 79 -70 89 -67 221 -137 312
-166 l57 -18 0 -133 0 -133 190 0 190 0 0 129 0 129 41 7 c22 4 77 25 121 47
103 52 183 129 229 223 33 68 34 73 34 190 -1 149 -20 207 -100 294 -93 100
-199 145 -450 191 -199 37 -231 46 -257 72 -20 20 -20 21 -1 39 63 64 316 26
437 -65 17 -12 36 -25 43 -29 10 -6 41 31 236 281 6 8 5 17 -3 27 -26 31 -175
115 -252 142 l-77 28 -3 135 -3 135 -181 3 c-99 1 -183 -1 -187 -4z"/>
<path d="M6970 2555 l0 -185 545 0 545 0 0 185 0 185 -545 0 -545 0 0 -185z"/>
</g>
</svg>
